<svg width="1001" height="13" viewBox="0 0 1001 13" fill="none" xmlns="http://www.w3.org/2000/svg">
<path d="M0.215417 10.7572L56.4987 2.58664C58.2639 2.33039 60.0555 2.31143 61.8258 2.53027L124.28 10.2511C125.977 10.4609 127.694 10.4521 129.389 10.2251L187.405 2.45343C189.144 2.22041 190.907 2.21737 192.647 2.44439L250.834 10.0348C252.575 10.2619 254.338 10.2588 256.078 10.0256L313.306 2.3553C315.027 2.12472 316.77 2.11907 318.491 2.33849L377.582 9.8688C379.239 10.08 380.916 10.0827 382.574 9.87696L444.194 2.22887C445.901 2.01704 447.628 2.02623 449.332 2.25619L504.113 9.64779C505.829 9.87939 507.568 9.88705 509.287 9.67058L569.103 2.13549C570.786 1.92345 572.49 1.92645 574.172 2.1444L630.5 9.44141C632.37 9.6836 634.264 9.66024 636.127 9.37203L682.948 2.12899C684.657 1.86459 686.393 1.823 688.113 2.00524L757.634 9.37205C759.166 9.53439 760.711 9.51917 762.24 9.32668L821.106 1.91394C822.619 1.72348 824.148 1.70656 825.664 1.86352L900.418 9.60126C901.663 9.73021 902.918 9.74186 904.166 9.63607L1000.2 1.49469" stroke="#003660" stroke-width="3"/>
</svg>
